<svg xmlns="http://www.w3.org/2000/svg" viewBox="0 0 1600 480" width="1600" height="480">
  <defs>
    <radialGradient id="forest" cx="0.32" cy="0.4" r="1.2">
      <stop offset="0" stop-color="#14402a"/>
      <stop offset="0.5" stop-color="#0e2a1c"/>
      <stop offset="1" stop-color="#05130c"/>
    </radialGradient>
    <radialGradient id="halo" cx="0.5" cy="0.5" r="0.5">
      <stop offset="0" stop-color="#3ddc84" stop-opacity="0.12"/>
      <stop offset="1" stop-color="#3ddc84" stop-opacity="0"/>
    </radialGradient>
  </defs>

  <rect width="1600" height="480" rx="24" fill="url(#forest)"/>

  <!-- constellation accents -->
  <g stroke="#2e9e63" stroke-width="1.5" opacity="0.35">
    <path d="M1150 90 L1310 150 L1450 80" fill="none"/>
    <path d="M1200 400 L1360 330 L1520 410" fill="none"/>
  </g>
  <g fill="#a8e063" opacity="0.5">
    <circle cx="1150" cy="90" r="4"/><circle cx="1310" cy="150" r="5"/><circle cx="1450" cy="80" r="3.5"/>
    <circle cx="1200" cy="400" r="4"/><circle cx="1360" cy="330" r="5"/><circle cx="1520" cy="410" r="3.5"/>
    <circle cx="1050" cy="240" r="3"/><circle cx="1560" cy="230" r="3"/>
  </g>

  <circle cx="330" cy="240" r="300" fill="url(#halo)"/>

  <!-- the mark -->
  <g transform="translate(145.6 55.6) scale(0.72)">
    <g fill="#2e9e63">
      <path d="M256 84 L272 108 L256 132 L240 108 Z"/>
      <path d="M256 380 L272 404 L256 428 L240 404 Z"/>
      <path d="M96 160 L114 176 L96 192 L78 176 Z"/>
      <path d="M416 160 L434 176 L416 192 L398 176 Z"/>
      <path d="M96 320 L114 336 L96 352 L78 336 Z"/>
      <path d="M416 320 L434 336 L416 352 L398 336 Z"/>
    </g>
    <path d="M76 256 Q 256 128 436 256 Q 256 384 76 256 Z"
          fill="#05130c" stroke="#3ddc84" stroke-width="20"/>
    <circle cx="256" cy="256" r="66" fill="#a8e063"/>
    <path d="M256 200 Q 272 256 256 312 Q 240 256 256 200 Z" fill="#05130c"/>
    <circle cx="256" cy="228" r="8" fill="#f5c542"/>
  </g>

  <!-- wordmark -->
  <g font-family="Ubuntu, DejaVu Sans, sans-serif">
    <text x="560" y="255" font-size="110" font-weight="bold" fill="#eaf7ee" letter-spacing="4">SibillaOS</text>
    <text x="564" y="318" font-size="34" fill="#3ddc84" letter-spacing="8">THE ORACLE ON YOUR HARDWARE</text>
  </g>
</svg>
