<svg xmlns="http://www.w3.org/2000/svg" viewBox="0 0 1600 480" width="1600" height="480">
  <defs>
    <radialGradient id="sky" cx="0.32" cy="0.4" r="1.2">
      <stop offset="0" stop-color="#2a2170"/>
      <stop offset="0.5" stop-color="#1b1740"/>
      <stop offset="1" stop-color="#0b081c"/>
    </radialGradient>
    <radialGradient id="halo" cx="0.5" cy="0.5" r="0.5">
      <stop offset="0" stop-color="#f5c542" stop-opacity="0.14"/>
      <stop offset="1" stop-color="#f5c542" stop-opacity="0"/>
    </radialGradient>
  </defs>

  <rect width="1600" height="480" rx="24" fill="url(#sky)"/>

  <!-- constellation accents -->
  <g stroke="#8a63e8" stroke-width="1.5" opacity="0.3">
    <path d="M1150 90 L1310 150 L1450 80" fill="none"/>
    <path d="M1200 400 L1360 330 L1520 410" fill="none"/>
  </g>
  <g fill="#cbb7ff" opacity="0.5">
    <circle cx="1150" cy="90" r="4"/><circle cx="1310" cy="150" r="5"/><circle cx="1450" cy="80" r="3.5"/>
    <circle cx="1200" cy="400" r="4"/><circle cx="1360" cy="330" r="5"/><circle cx="1520" cy="410" r="3.5"/>
    <circle cx="1050" cy="240" r="3"/><circle cx="1560" cy="230" r="3"/>
  </g>

  <circle cx="330" cy="240" r="300" fill="url(#halo)"/>

  <!-- the mark -->
  <g transform="translate(151.6 63.9) scale(0.72)">
    <path d="M80 268 Q 256 108 432 268"
          fill="none" stroke="#f5c542" stroke-width="30" stroke-linecap="round"/>
    <g fill="none" stroke="#8a63e8" stroke-linecap="round">
      <path d="M166 300 A 90 90 0 0 0 346 300" stroke-width="18"/>
      <path d="M198 300 A 58 58 0 0 0 314 300" stroke-width="16"/>
    </g>
    <circle cx="256" cy="300" r="30" fill="#f5c542"/>
  </g>

  <!-- wordmark -->
  <g font-family="Ubuntu, DejaVu Sans, sans-serif">
    <text x="560" y="255" font-size="110" font-weight="bold" fill="#f2ecff" letter-spacing="4">SibillaOS</text>
    <text x="564" y="318" font-size="34" fill="#8a63e8" letter-spacing="8">THE ORACLE ON YOUR HARDWARE</text>
  </g>
</svg>
