<svg xmlns="http://www.w3.org/2000/svg" viewBox="0 0 512 512" width="512" height="512">
  <rect x="16" y="16" width="480" height="480" rx="112" fill="#1b1740"/>
  <!-- eye outline -->
  <path d="M92 256 Q 256 124 420 256 Q 256 388 92 256 Z"
        fill="none" stroke="#f5c542" stroke-width="22" stroke-linejoin="round"/>
  <!-- iris: neural ring, six nodes linked to the pupil -->
  <g stroke="#8a63e8" stroke-width="9" fill="none">
    <path d="M256 256 L256 176"/>
    <path d="M256 256 L325 216"/>
    <path d="M256 256 L325 296"/>
    <path d="M256 256 L256 336"/>
    <path d="M256 256 L187 296"/>
    <path d="M256 256 L187 216"/>
  </g>
  <g fill="#8a63e8">
    <circle cx="256" cy="176" r="17"/>
    <circle cx="325" cy="216" r="17"/>
    <circle cx="325" cy="296" r="17"/>
    <circle cx="256" cy="336" r="17"/>
    <circle cx="187" cy="296" r="17"/>
    <circle cx="187" cy="216" r="17"/>
  </g>
  <circle cx="256" cy="256" r="44" fill="#f5c542"/>
</svg>
