<svg xmlns="http://www.w3.org/2000/svg" viewBox="0 0 512 512" width="512" height="512">
  <rect x="16" y="16" width="480" height="480" rx="96" fill="#1b1740"/>
  <!-- crown of three flames above the eye -->
  <g fill="#f5c542">
    <path d="M256 66 Q 276 118 256 156 Q 236 118 256 66 Z"/>
    <path d="M186 104 Q 202 140 190 170 Q 172 138 186 104 Z"/>
    <path d="M326 104 Q 340 138 322 170 Q 310 140 326 104 Z"/>
  </g>
  <!-- lens eye, slightly lower -->
  <path d="M80 292 Q 256 176 432 292 Q 256 408 80 292 Z"
        fill="#120e2b" stroke="#f5c542" stroke-width="20"/>
  <!-- iris -->
  <circle cx="256" cy="292" r="60" fill="#8a63e8"/>
  <!-- flame pupil -->
  <path d="M256 244 Q 278 270 268 300 Q 262 316 256 330 Q 250 316 244 300 Q 234 270 256 244 Z" fill="#120e2b"/>
  <circle cx="256" cy="268" r="7" fill="#f5c542"/>
</svg>
