<svg xmlns="http://www.w3.org/2000/svg" viewBox="0 0 512 512" width="512" height="512">
  <rect x="16" y="16" width="480" height="480" rx="96" fill="#0e2a1c"/>
  <!-- rune diamonds -->
  <g fill="#2e9e63">
    <path d="M256 84 L272 108 L256 132 L240 108 Z"/>
    <path d="M256 380 L272 404 L256 428 L240 404 Z"/>
    <path d="M96 160 L114 176 L96 192 L78 176 Z"/>
    <path d="M416 160 L434 176 L416 192 L398 176 Z"/>
    <path d="M96 320 L114 336 L96 352 L78 336 Z"/>
    <path d="M416 320 L434 336 L416 352 L398 336 Z"/>
  </g>
  <!-- arcane lens eye -->
  <path d="M76 256 Q 256 128 436 256 Q 256 384 76 256 Z"
        fill="#081b11" stroke="#3ddc84" stroke-width="20"/>
  <!-- iris -->
  <circle cx="256" cy="256" r="66" fill="#a8e063"/>
  <!-- slit pupil -->
  <path d="M256 200 Q 272 256 256 312 Q 240 256 256 200 Z" fill="#081b11"/>
  <circle cx="256" cy="228" r="8" fill="#f5c542"/>
</svg>
